<svg xmlns="http://www.w3.org/2000/svg" version="1.1" xmlns:xlink="http://www.w3.org/1999/xlink" viewBox="0 0 11.824084954825398 3.518832122829338"><g transform="matrix(0.7334860246137086,0,0,0.7334860246137086,2.0445509121939915,1.3677345242709487)"><g transform="matrix(1,0,0,1,0,0)" clip-path="url(#SvgjsClipPath40356)"><g clip-path="url(#SvgjsClipPath40354dcc075c0-a2f5-4500-b9ce-6e26788c496a)"><path d=" M 9.811447666478957 0.09612100072547736 L 9.19339536269572 0.09612100072547736 L 8.459458251953125 1.6541278498457217 L 10.545508531687505 1.6541278498457217 L 9.81157142094491 0.09612100072547736 Z" fill="#002540" transform="matrix(1,0,0,1,0,0)" fill-rule="nonzero"></path></g><g clip-path="url(#aaf26f127-65bb-43c2-95f3-bb08e147d439dcc075c0-a2f5-4500-b9ce-6e26788c496a)"><path d=" M 8.75766375849783 0.3600875464279274 C 8.75766375849783 -0.04352639387306889 9.08601810789017 -0.3718863684684064 9.48962642298817 -0.3718863684684064 C 9.893234738086168 -0.3718863684684064 10.221600337884503 -0.04352639387306889 10.221600337884503 0.3600875464279274 C 10.221600337884503 0.4605649223760869 10.201225852626177 0.556373379836005 10.164425774614035 0.6436202783331472 L 10.277413602029483 0.8834733089598171 C 10.377407210519825 0.7334660206153106 10.435841819261817 0.5534989011040875 10.435841819261817 0.3600875464279274 C 10.435841819261817 -0.16166128203157853 10.011369626244678 -0.5861278498457217 9.48962642298817 -0.5861278498457217 C 8.967894470137658 -0.5861278498457217 8.543422277120516 -0.16166128203157853 8.543422277120516 0.3600875464279274 C 8.543422277120516 0.5654693330835793 8.609405908285666 0.7556180700209679 8.720998685357639 0.9108961735744895 L 8.83055513894438 0.6783277808300762 C 8.78387720446796 0.5820411811153382 8.75766375849783 0.47407665997699844 8.75766375849783 0.3600875464279274" fill="#ffc107" transform="matrix(1,0,0,1,0,0)" fill-rule="nonzero"></path></g><g clip-path="url(#SvgjsClipPath40354dcc075c0-a2f5-4500-b9ce-6e26788c496a)"><path d=" M 9.450983757214937 1.57258437944463 L 9.553986849309146 1.57258437944463 L 9.544958398497545 1.1985983833334752 L 9.460017833229534 1.1985983833334752 Z" fill="#ffc107" transform="matrix(1,0,0,1,0,0)" fill-rule="nonzero"></path></g><g clip-path="url(#SvgjsClipPath40354dcc075c0-a2f5-4500-b9ce-6e26788c496a)"><path d=" M 9.462796713042877 1.0832917490513245 L 9.542168327342985 1.0832917490513245 L 9.536357492646173 0.8429324501548453 L 9.468596297333693 0.8429324501548453 Z" fill="#ffc107" transform="matrix(1,0,0,1,0,0)" fill-rule="nonzero"></path></g><g clip-path="url(#SvgjsClipPath40354dcc075c0-a2f5-4500-b9ce-6e26788c496a)"><path d=" M 9.470981403866523 0.7442092898358764 L 9.533978052239798 0.7442092898358764 L 9.530451049960126 0.5982858988678322 L 9.474508406146194 0.5982858988678322 Z" fill="#ffc107" transform="matrix(1,0,0,1,0,0)" fill-rule="nonzero"></path></g><g clip-path="url(#SvgjsClipPath40354dcc075c0-a2f5-4500-b9ce-6e26788c496a)"><path d=" M 9.476740219832644 0.5060052544782471 L 9.528227702872252 0.5060052544782471 L 9.525116965614425 0.3772443578567394 L 9.479845331887473 0.3772443578567394 Z" fill="#ffc107" transform="matrix(1,0,0,1,0,0)" fill-rule="nonzero"></path></g><g clip-path="url(#SvgjsClipPath40354dcc075c0-a2f5-4500-b9ce-6e26788c496a)"><path d=" M 9.52102192853624 0.20771546308435618 L 9.483940590374203 0.20771546308435618 L 9.481870515670984 0.2935448104260323 L 9.523097628442457 0.2935448104260323 Z" fill="#ffc107" transform="matrix(1,0,0,1,0,0)" fill-rule="nonzero"></path></g><g clip-path="url(#SvgjsClipPath40354dcc075c0-a2f5-4500-b9ce-6e26788c496a)"><path d=" M 8.609753640317706 1.5799379444475234 L 8.594036823141625 1.5725239268963156 L 9.254576285167861 0.17031270000539744 L 9.270293102343942 0.17772671755660518 Z" fill="#ffc107" transform="matrix(1,0,0,1,0,0)" fill-rule="nonzero"></path></g><g clip-path="url(#SvgjsClipPath40354dcc075c0-a2f5-4500-b9ce-6e26788c496a)"><path d=" M 10.391704275660203 1.5799379444475234 L 9.731164813633965 0.17772671755660518 L 9.746881630810046 0.17031270000539744 L 10.407421092836284 1.5725239268963156 Z" fill="#ffc107" transform="matrix(1,0,0,1,0,0)" fill-rule="nonzero"></path></g></g><g><path d=" M 0.378 0.8429999999999999 L 0.7065 0.8429999999999999 L 0.7065 1.0679999999999998 L 0.084 1.0679999999999998 L 0.084 0.010499999999999732 L 0.378 0.010499999999999732 L 0.378 0.8429999999999999 M 1.113041748046875 0.010499999999999732 L 1.113041748046875 1.0679999999999998 L 0.8190417480468749 1.0679999999999998 L 0.8190417480468749 0.010499999999999732 L 1.113041748046875 0.010499999999999732 M 1.5937353515625 0.2587499999999998 Q 1.6589853515625 0.13649999999999984 1.7789853515624998 0.06824999999999981 Q 1.8989853515624997 -2.220446049250313e-16 2.0549853515625 -2.220446049250313e-16 Q 2.2529853515625 -2.220446049250313e-16 2.3879853515624996 0.10574999999999979 Q 2.5229853515625 0.2114999999999998 2.5619853515625 0.3929999999999998 L 2.2454853515625 0.3929999999999998 Q 2.2169853515624998 0.33299999999999985 2.1667353515625 0.30149999999999977 Q 2.1164853515625 0.2699999999999998 2.0504853515625 0.2699999999999998 Q 1.9484853515624998 0.2699999999999998 1.8877353515624997 0.3427499999999998 Q 1.8269853515624999 0.41549999999999987 1.8269853515624999 0.5369999999999998 Q 1.8269853515624999 0.6599999999999998 1.8877353515624997 0.7327499999999998 Q 1.9484853515624998 0.8054999999999999 2.0504853515625 0.8054999999999999 Q 2.1164853515625 0.8054999999999999 2.1667353515625 0.7739999999999998 Q 2.2169853515624998 0.7424999999999998 2.2454853515625 0.6824999999999999 L 2.5619853515625 0.6824999999999999 Q 2.5229853515625 0.8639999999999999 2.3879853515624996 0.9697499999999999 Q 2.2529853515625 1.0755 2.0549853515625 1.0755 Q 1.8989853515624997 1.0755 1.7789853515624998 1.0072499999999998 Q 1.6589853515625 0.9389999999999998 1.5937353515625 0.8167499999999999 Q 1.5284853515624999 0.6944999999999999 1.5284853515624999 0.5369999999999998 Q 1.5284853515624999 0.3809999999999998 1.5937353515625 0.2587499999999998 M 2.993978759765625 0.010499999999999732 L 2.993978759765625 1.0679999999999998 L 2.699978759765625 1.0679999999999998 L 2.699978759765625 0.010499999999999732 L 2.993978759765625 0.010499999999999732 M 4.241922363281249 0.010499999999999732 L 4.241922363281249 0.24449999999999983 L 3.9599223632812497 0.24449999999999983 L 3.9599223632812497 1.0679999999999998 L 3.6659223632812497 1.0679999999999998 L 3.6659223632812497 0.24449999999999983 L 3.3869223632812497 0.24449999999999983 L 3.3869223632812497 0.010499999999999732 L 4.241922363281249 0.010499999999999732 M 5.01892822265625 0.8954999999999999 L 4.64392822265625 0.8954999999999999 L 4.586928222656249 1.0679999999999998 L 4.277928222656249 1.0679999999999998 L 4.66342822265625 0.010499999999999732 L 5.00242822265625 0.010499999999999732 L 5.386428222656249 1.0679999999999998 L 5.07592822265625 1.0679999999999998 L 5.01892822265625 0.8954999999999999 M 4.94542822265625 0.6704999999999999 L 4.83142822265625 0.3284999999999998 L 4.71892822265625 0.6704999999999999 L 4.94542822265625 0.6704999999999999 M 5.774935546875 0.8429999999999999 L 6.103435546875 0.8429999999999999 L 6.103435546875 1.0679999999999998 L 5.480935546874999 1.0679999999999998 L 5.480935546874999 0.010499999999999732 L 5.774935546875 0.010499999999999732 L 5.774935546875 0.8429999999999999 M 6.509977294921875 0.010499999999999732 L 6.509977294921875 1.0679999999999998 L 6.215977294921874 1.0679999999999998 L 6.215977294921874 0.010499999999999732 L 6.509977294921875 0.010499999999999732 M 7.499202392578124 0.6172499999999999 Q 7.5539523925781245 0.6884999999999999 7.5539523925781245 0.7799999999999998 Q 7.5539523925781245 0.9149999999999998 7.4609523925781245 0.9914999999999998 Q 7.3679523925781245 1.0679999999999998 7.199952392578124 1.0679999999999998 L 6.676452392578124 1.0679999999999998 L 6.676452392578124 0.010499999999999732 L 7.183452392578125 0.010499999999999732 Q 7.3454523925781245 0.010499999999999732 7.4377023925781245 0.0824999999999998 Q 7.529952392578124 0.15449999999999986 7.529952392578124 0.2849999999999998 Q 7.529952392578124 0.3779999999999998 7.481202392578124 0.4402499999999998 Q 7.432452392578124 0.5024999999999998 7.351452392578125 0.5249999999999998 Q 7.444452392578125 0.5459999999999998 7.499202392578124 0.6172499999999999 M 6.9704523925781245 0.43049999999999977 L 7.118952392578125 0.43049999999999977 Q 7.229952392578125 0.43049999999999977 7.229952392578125 0.33899999999999986 Q 7.229952392578125 0.24449999999999983 7.118952392578125 0.24449999999999983 L 6.9704523925781245 0.24449999999999983 L 6.9704523925781245 0.43049999999999977 M 7.252452392578125 0.7379999999999998 Q 7.252452392578125 0.6899999999999998 7.223202392578124 0.6644999999999999 Q 7.193952392578124 0.6389999999999998 7.139952392578125 0.6389999999999998 L 6.9704523925781245 0.6389999999999998 L 6.9704523925781245 0.8309999999999998 L 7.141452392578125 0.8309999999999998 Q 7.252452392578125 0.8309999999999998 7.252452392578125 0.7379999999999998 M 7.9754831542968745 0.010499999999999732 L 7.9754831542968745 1.0679999999999998 L 7.681483154296874 1.0679999999999998 L 7.681483154296874 0.010499999999999732 L 7.9754831542968745 0.010499999999999732" fill="#ffc107" fill-rule="nonzero"></path></g><g></g></g><defs><clipPath id="SvgjsClipPath40356"><path d=" M 8.459458251953125 -0.5861278498457217 h 2.0860502797343803 v 2.2402556996914433 h -2.0860502797343803 Z"></path></clipPath><clipPath id="SvgjsClipPath40354dcc075c0-a2f5-4500-b9ce-6e26788c496a"><path d=" M 8.459458251953125 -0.5861278498457217 L 10.545508531687505 -0.5861278498457217 L 10.545508531687505 1.6541278498457217 L 8.459458251953125 1.6541278498457217 Z"></path></clipPath><clipPath id="aaf26f127-65bb-43c2-95f3-bb08e147d439dcc075c0-a2f5-4500-b9ce-6e26788c496a"><path d=" M 8.459454871971138 1.6541317448725823 L 10.54550515170552 1.6541317448725823 L 10.54550515170552 -0.5861334750487196 L 8.459454871971138 -0.5861334750487196 Z"></path></clipPath></defs></svg>